<svg width="43" height="74" viewBox="0 0 43 74" fill="none" xmlns="http://www.w3.org/2000/svg">
<path id="Vector 4" d="M39.518 41.7205L38.5544 41.4533L39.518 41.7205ZM0.715334 71.5676L12.1218 73.3638L7.97412 62.5874L0.715334 71.5676ZM22.2388 2.57487C29.0245 5.36056 34.5926 9.58007 37.7288 15.7764C40.8623 21.9676 41.6488 30.2919 38.5544 41.4533L40.4817 41.9876C43.6671 30.4981 42.9341 21.6322 39.5132 14.8733C36.095 8.11958 30.0734 3.62922 22.9983 0.724709L22.2388 2.57487ZM38.5544 41.4533C36.8241 47.6942 31.9948 53.0622 26.2055 57.4641C20.4327 61.8535 13.8202 65.1955 8.71773 67.4171L9.51613 69.2508C14.6935 66.9966 21.466 63.5803 27.416 59.0562C33.3496 54.5446 38.5809 48.8437 40.4817 41.9876L38.5544 41.4533Z" fill="#FF7970"/>
</svg>
