<svg width="25" height="25" viewBox="0 0 25 25" fill="none" xmlns="http://www.w3.org/2000/svg">
<g id="mi:filter">
<path id="Vector" d="M10.4375 5.00191C10.1226 5.00191 9.82051 5.10723 9.59781 5.29472C9.37511 5.4822 9.25 5.73649 9.25 6.00163C9.25 6.26678 9.37511 6.52106 9.59781 6.70855C9.82051 6.89603 10.1226 7.00136 10.4375 7.00136C10.7524 7.00136 11.0545 6.89603 11.2772 6.70855C11.4999 6.52106 11.625 6.26678 11.625 6.00163C11.625 5.73649 11.4999 5.4822 11.2772 5.29472C11.0545 5.10723 10.7524 5.00191 10.4375 5.00191ZM7.07688 5.00191C7.32221 4.41653 7.77719 3.90964 8.37909 3.55109C8.98098 3.19254 9.70017 3 10.4375 3C11.1748 3 11.894 3.19254 12.4959 3.55109C13.0978 3.90964 13.5528 4.41653 13.7981 5.00191H22.3125C22.6274 5.00191 22.9295 5.10723 23.1522 5.29472C23.3749 5.4822 23.5 5.73649 23.5 6.00163C23.5 6.26678 23.3749 6.52106 23.1522 6.70855C22.9295 6.89603 22.6274 7.00136 22.3125 7.00136H13.7981C13.5528 7.58673 13.0978 8.09363 12.4959 8.45218C11.894 8.81072 11.1748 9.00327 10.4375 9.00327C9.70017 9.00327 8.98098 8.81072 8.37909 8.45218C7.77719 8.09363 7.32221 7.58673 7.07688 7.00136H5.6875C5.37256 7.00136 5.07051 6.89603 4.84781 6.70855C4.62511 6.52106 4.5 6.26678 4.5 6.00163C4.5 5.73649 4.62511 5.4822 4.84781 5.29472C5.07051 5.10723 5.37256 5.00191 5.6875 5.00191H7.07688ZM17.5625 11.0003C17.2476 11.0003 16.9455 11.1056 16.7228 11.2931C16.5001 11.4806 16.375 11.7349 16.375 12C16.375 12.2651 16.5001 12.5194 16.7228 12.7069C16.9455 12.8944 17.2476 12.9997 17.5625 12.9997C17.8774 12.9997 18.1795 12.8944 18.4022 12.7069C18.6249 12.5194 18.75 12.2651 18.75 12C18.75 11.7349 18.6249 11.4806 18.4022 11.2931C18.1795 11.1056 17.8774 11.0003 17.5625 11.0003ZM14.2019 11.0003C14.4472 10.4149 14.9022 9.908 15.5041 9.54946C16.106 9.19091 16.8252 8.99837 17.5625 8.99837C18.2998 8.99837 19.019 9.19091 19.6209 9.54946C20.2228 9.908 20.6778 10.4149 20.9231 11.0003H22.3125C22.6274 11.0003 22.9295 11.1056 23.1522 11.2931C23.3749 11.4806 23.5 11.7349 23.5 12C23.5 12.2651 23.3749 12.5194 23.1522 12.7069C22.9295 12.8944 22.6274 12.9997 22.3125 12.9997H20.9231C20.6778 13.5851 20.2228 14.092 19.6209 14.4505C19.019 14.8091 18.2998 15.0016 17.5625 15.0016C16.8252 15.0016 16.106 14.8091 15.5041 14.4505C14.9022 14.092 14.4472 13.5851 14.2019 12.9997H5.6875C5.37256 12.9997 5.07051 12.8944 4.84781 12.7069C4.62511 12.5194 4.5 12.2651 4.5 12C4.5 11.7349 4.62511 11.4806 4.84781 11.2931C5.07051 11.1056 5.37256 11.0003 5.6875 11.0003H14.2019ZM10.4375 16.9986C10.1226 16.9986 9.82051 17.104 9.59781 17.2915C9.37511 17.4789 9.25 17.7332 9.25 17.9984C9.25 18.2635 9.37511 18.5178 9.59781 18.7053C9.82051 18.8928 10.1226 18.9981 10.4375 18.9981C10.7524 18.9981 11.0545 18.8928 11.2772 18.7053C11.4999 18.5178 11.625 18.2635 11.625 17.9984C11.625 17.7332 11.4999 17.4789 11.2772 17.2915C11.0545 17.104 10.7524 16.9986 10.4375 16.9986ZM7.07688 16.9986C7.32221 16.4133 7.77719 15.9064 8.37909 15.5478C8.98098 15.1893 9.70017 14.9967 10.4375 14.9967C11.1748 14.9967 11.894 15.1893 12.4959 15.5478C13.0978 15.9064 13.5528 16.4133 13.7981 16.9986H22.3125C22.6274 16.9986 22.9295 17.104 23.1522 17.2915C23.3749 17.4789 23.5 17.7332 23.5 17.9984C23.5 18.2635 23.3749 18.5178 23.1522 18.7053C22.9295 18.8928 22.6274 18.9981 22.3125 18.9981H13.7981C13.5528 19.5835 13.0978 20.0904 12.4959 20.4489C11.894 20.8075 11.1748 21 10.4375 21C9.70017 21 8.98098 20.8075 8.37909 20.4489C7.77719 20.0904 7.32221 19.5835 7.07688 18.9981H5.6875C5.37256 18.9981 5.07051 18.8928 4.84781 18.7053C4.62511 18.5178 4.5 18.2635 4.5 17.9984C4.5 17.7332 4.62511 17.4789 4.84781 17.2915C5.07051 17.104 5.37256 16.9986 5.6875 16.9986H7.07688Z" fill="white" fill-opacity="0.85"/>
</g>
</svg>
