<svg width="96" height="74" viewBox="0 0 96 74" fill="none" xmlns="http://www.w3.org/2000/svg">
<g id="&#226;&#128;&#153;&#226;&#128;&#153;" opacity="0.08">
<path d="M20.184 0.000244141C31.4294 0.000244141 43.5398 8.0625 43.5398 29.9458V30.8096C43.5398 60.7551 22.2024 74.0003 3.17178 74.0003V59.8913C14.7055 59.8913 23.3558 52.9808 23.3558 41.1754H22.7791C10.092 41.1754 0 32.2493 0 19.58C0 7.77455 8.6503 0.000244141 20.184 0.000244141Z" fill="white"/>
<path d="M72.5315 0.000244141C83.7769 0.000244141 95.8873 8.0625 95.8873 29.9458V30.8096C95.8873 60.7551 74.5499 74.0003 55.5192 74.0003V59.8913C67.053 59.8913 75.7033 52.9808 75.7033 41.1754H75.1266C62.4395 41.1754 52.3475 32.2493 52.3475 19.58C52.3475 7.77455 60.9978 0.000244141 72.5315 0.000244141Z" fill="white"/>
</g>
</svg>
