<svg width="24" height="34" viewBox="0 0 24 34" fill="none" xmlns="http://www.w3.org/2000/svg">
<path id="Vector 226" d="M0.951067 1.06167C4.56476 2.09788 8.33458 2.95356 11.8293 4.33294C14.0609 5.21379 17.2295 6.11618 18.7544 7.88928C19.8965 9.21733 21.279 10.4148 21.8704 11.9873C23.2005 15.5238 22.3598 18.9339 20.4493 21.8774C18.7956 24.4254 16.1828 26.488 13.9148 28.6167C12.6394 29.8138 11.4044 31.0489 10.0473 32.1815C9.676 32.4915 8.99768 33.1658 8.38802 33.251C8.14073 33.2856 7.90678 33.4043 7.91528 33.3815C8.15835 32.7274 8.74542 32.2189 8.98863 31.536C9.11991 31.1674 10.0434 27.9119 9.60708 29.4334C9.3263 30.4126 9.04551 31.3919 8.76472 32.3711C8.46528 33.4154 13.2141 32.4691 13.8121 32.3364" stroke="#E598CB" stroke-width="1.02273" stroke-linecap="round"/>
</svg>
