<svg width="29" height="29" viewBox="0 0 29 29" fill="none" xmlns="http://www.w3.org/2000/svg">
<g id="logos:whatsapp-icon" clip-path="url(#clip0_97_1225)">
<path id="Vector" d="M1.10094 14.2243C1.10028 16.5768 1.71978 18.8739 2.89775 20.8986L0.988281 27.8163L8.12303 25.9601C10.0964 27.026 12.3074 27.5846 14.5543 27.5847H14.5602C21.9775 27.5847 28.0153 21.5959 28.0185 14.2348C28.0199 10.6678 26.6212 7.3137 24.08 4.79023C21.5392 2.26697 18.16 0.876628 14.5596 0.875C7.1415 0.875 1.10411 6.86353 1.10105 14.2243" fill="url(#paint0_linear_97_1225)"/>
<path id="Vector_2" d="M0.617031 14.2207C0.616266 16.6579 1.25797 19.0371 2.47794 21.1343L0.5 28.3L7.89058 26.3772C9.92692 27.4789 12.2196 28.0597 14.5526 28.0606H14.5586C22.242 28.0606 28.4967 21.8563 28.5 14.2317C28.5013 10.5366 27.0523 7.0619 24.4203 4.44802C21.788 1.83447 18.288 0.394098 14.5586 0.392578C6.87394 0.392578 0.620094 6.59599 0.617031 14.2207ZM5.01828 20.7731L4.74233 20.3385C3.5823 18.5083 2.97002 16.3933 2.97089 14.2215C2.97341 7.8841 8.17134 2.72808 14.563 2.72808C17.6583 2.72938 20.5672 3.92666 22.7552 6.09894C24.943 8.27143 26.1469 11.1593 26.1461 14.2309C26.1433 20.5683 20.9452 25.725 14.5586 25.725H14.554C12.4745 25.7239 10.435 25.1698 8.65631 24.1226L8.23303 23.8735L3.84731 25.0145L5.01828 20.773V20.7731Z" fill="url(#paint1_linear_97_1225)"/>
<path id="Vector_3" d="M11.0761 8.43925C10.8151 7.86373 10.5405 7.85212 10.2923 7.84203C10.0891 7.83334 9.85678 7.834 9.62469 7.834C9.39237 7.834 9.01492 7.92071 8.69587 8.26637C8.3765 8.61235 7.47656 9.44845 7.47656 11.149C7.47656 12.8496 8.72486 14.493 8.89888 14.7238C9.07311 14.9542 11.3087 18.5556 14.8494 19.9411C17.792 21.0924 18.3909 20.8634 19.0295 20.8057C19.6683 20.7482 21.0906 19.9698 21.3807 19.1627C21.6711 18.3557 21.6711 17.6639 21.5841 17.5194C21.497 17.3754 21.2647 17.2889 20.9163 17.1161C20.5679 16.9432 18.8553 16.107 18.536 15.9917C18.2166 15.8764 17.9844 15.8189 17.7521 16.165C17.5198 16.5105 16.8527 17.2889 16.6494 17.5194C16.4463 17.7504 16.243 17.7792 15.8947 17.6063C15.5461 17.4329 14.4243 17.0684 13.0933 15.8909C12.0577 14.9748 11.3586 13.8434 11.1554 13.4973C10.9522 13.1517 11.1336 12.9644 11.3083 12.7922C11.4648 12.6373 11.6568 12.3886 11.8311 12.1868C12.0048 11.9849 12.0628 11.8409 12.1789 11.6104C12.2952 11.3797 12.237 11.1778 12.15 11.0049C12.0628 10.8321 11.3858 9.12265 11.0761 8.43925Z" fill="white"/>
</g>
<defs>
<linearGradient id="paint0_linear_97_1225" x1="1352.5" y1="2695.01" x2="1352.5" y2="0.875" gradientUnits="userSpaceOnUse">
<stop stop-color="#1FAF38"/>
<stop offset="1" stop-color="#60D669"/>
</linearGradient>
<linearGradient id="paint1_linear_97_1225" x1="1400.5" y1="2791.14" x2="1400.5" y2="0.392578" gradientUnits="userSpaceOnUse">
<stop stop-color="#F9F9F9"/>
<stop offset="1" stop-color="white"/>
</linearGradient>
<clipPath id="clip0_97_1225">
<rect width="28" height="28" fill="white" transform="translate(0.5 0.392578)"/>
</clipPath>
</defs>
</svg>
