<svg width="29" height="29" viewBox="0 0 29 29" fill="none" xmlns="http://www.w3.org/2000/svg">
<g id="mdi:phone">
<path id="Vector" d="M8.22333 12.9809C9.90333 16.2826 12.61 18.9892 15.9117 20.6692L18.4783 18.1026C18.805 17.7759 19.26 17.6826 19.6683 17.8109C20.975 18.2426 22.375 18.4759 23.8333 18.4759C24.1427 18.4759 24.4395 18.5988 24.6583 18.8176C24.8771 19.0364 25 19.3332 25 19.6426V23.7259C25 24.0353 24.8771 24.3321 24.6583 24.5509C24.4395 24.7697 24.1427 24.8926 23.8333 24.8926C18.5732 24.8926 13.5285 22.803 9.80905 19.0835C6.08958 15.3641 4 10.3194 4 5.05924C4 4.74983 4.12292 4.45308 4.34171 4.23429C4.5605 4.01549 4.85725 3.89258 5.16667 3.89258H9.25C9.55942 3.89258 9.85616 4.01549 10.075 4.23429C10.2937 4.45308 10.4167 4.74983 10.4167 5.05924C10.4167 6.51758 10.65 7.91758 11.0817 9.22424C11.21 9.63258 11.1167 10.0876 10.79 10.4142L8.22333 12.9809Z" fill="#F8F8F8"/>
</g>
</svg>
