<svg width="28" height="28" viewBox="0 0 28 28" fill="none" xmlns="http://www.w3.org/2000/svg">
<g id="Group 1321314281">
<path id="Polygon 1" d="M14.8058 26.9033C14.4062 27.4472 13.5938 27.4472 13.1942 26.9033L3.04556 13.0921C2.56028 12.4317 3.03186 11.5 3.8514 11.5L24.1486 11.5C24.9681 11.5 25.4397 12.4317 24.9544 13.0921L14.8058 26.9033Z" fill="url(#paint0_linear_3725_1498)"/>
<path id="Polygon 2" d="M14.8058 20.9033C14.4062 21.4472 13.5938 21.4472 13.1942 20.9033L3.04556 7.09213C2.56028 6.43172 3.03186 5.5 3.8514 5.5L24.1486 5.5C24.9681 5.5 25.4397 6.43172 24.9544 7.09214L14.8058 20.9033Z" fill="url(#paint1_linear_3725_1498)"/>
</g>
<defs>
<linearGradient id="paint0_linear_3725_1498" x1="14" y1="39" x2="14" y2="6" gradientUnits="userSpaceOnUse">
<stop stop-color="#92C17C"/>
<stop offset="1" stop-color="#D9D9D9" stop-opacity="0"/>
</linearGradient>
<linearGradient id="paint1_linear_3725_1498" x1="14" y1="33" x2="14" y2="-1.79942e-06" gradientUnits="userSpaceOnUse">
<stop stop-color="#92C17C"/>
<stop offset="1" stop-color="#D9D9D9" stop-opacity="0"/>
</linearGradient>
</defs>
</svg>
