<svg width="96" height="74" viewBox="0 0 96 74" fill="none" xmlns="http://www.w3.org/2000/svg">
<g id="&#226;&#128;&#153;&#226;&#128;&#153;" opacity="0.08">
<path d="M20.184 0C31.4294 0 43.5398 8.06226 43.5398 29.9455V30.8093C43.5398 60.7549 22.2024 74 3.17178 74V59.8911C14.7055 59.8911 23.3558 52.9805 23.3558 41.1751H22.7791C10.092 41.1751 0 32.249 0 19.5798C0 7.77431 8.6503 0 20.184 0Z" fill="white"/>
<path d="M72.5315 0C83.7769 0 95.8873 8.06226 95.8873 29.9455V30.8093C95.8873 60.7549 74.5499 74 55.5192 74V59.8911C67.053 59.8911 75.7033 52.9805 75.7033 41.1751H75.1266C62.4395 41.1751 52.3475 32.249 52.3475 19.5798C52.3475 7.77431 60.9978 0 72.5315 0Z" fill="white"/>
</g>
</svg>
