<svg width="28" height="29" viewBox="0 0 28 29" fill="none" xmlns="http://www.w3.org/2000/svg">
<g id="Group 1321314281">
<path id="Polygon 1" d="M26.9033 13.6942C27.4472 14.0938 27.4472 14.9062 26.9033 15.3058L13.0921 25.4544C12.4317 25.9397 11.5 25.4681 11.5 24.6486L11.5 4.3514C11.5 3.53186 12.4317 3.06028 13.0921 3.54556L26.9033 13.6942Z" fill="url(#paint0_linear_3725_855)"/>
<path id="Polygon 2" d="M20.9033 13.6942C21.4472 14.0938 21.4472 14.9062 20.9033 15.3058L7.09213 25.4544C6.43172 25.9397 5.5 25.4681 5.5 24.6486L5.5 4.3514C5.5 3.53186 6.43172 3.06028 7.09214 3.54556L20.9033 13.6942Z" fill="url(#paint1_linear_3725_855)"/>
</g>
<defs>
<linearGradient id="paint0_linear_3725_855" x1="39" y1="14.5" x2="6" y2="14.5" gradientUnits="userSpaceOnUse">
<stop stop-color="#92C17C"/>
<stop offset="1" stop-color="#D9D9D9" stop-opacity="0"/>
</linearGradient>
<linearGradient id="paint1_linear_3725_855" x1="33" y1="14.5" x2="-1.79942e-06" y2="14.5" gradientUnits="userSpaceOnUse">
<stop stop-color="#92C17C"/>
<stop offset="1" stop-color="#D9D9D9" stop-opacity="0"/>
</linearGradient>
</defs>
</svg>
