<svg width="56" height="44" viewBox="0 0 56 44" fill="none" xmlns="http://www.w3.org/2000/svg">
<path id="Vector 232" d="M56 0.0600586L45.2611 4.30374L54.3057 11.4821L56 0.0600586ZM1.79136 43.6714L17.5535 23.2678L15.9708 22.0451L0.208635 42.4487L1.79136 43.6714ZM21.6448 22.6419L29.1854 27.9056L30.3302 26.2656L22.7896 21.0019L21.6448 22.6419ZM35.9638 26.914L51.1883 7.73129L49.6217 6.48796L34.3972 25.6707L35.9638 26.914ZM29.1854 27.9056C31.3519 29.418 34.3212 28.9836 35.9638 26.914L34.3972 25.6707C33.4117 26.9124 31.6301 27.173 30.3302 26.2656L29.1854 27.9056ZM17.5535 23.2678C18.532 22.0012 20.3324 21.7258 21.6448 22.6419L22.7896 21.0019C20.6023 19.4751 17.6016 19.9341 15.9708 22.0451L17.5535 23.2678Z" fill="url(#paint0_linear_3755_3601)"/>
<defs>
<linearGradient id="paint0_linear_3755_3601" x1="46.8333" y1="0.120115" x2="5.5879" y2="34.1644" gradientUnits="userSpaceOnUse">
<stop stop-color="#F9137D"/>
<stop offset="1" stop-color="#F9137D" stop-opacity="0"/>
</linearGradient>
</defs>
</svg>
