<svg width="77" height="77" viewBox="0 0 77 77" fill="none" xmlns="http://www.w3.org/2000/svg">
<g id="Group 4">
<g id="Ellipse 21" filter="url(#filter0_bi_1108_959)">
<circle cx="38" cy="38" r="38" transform="matrix(-1 0 0 1 76.291 0.443359)" fill="white" fill-opacity="0.1"/>
<circle cx="38" cy="38" r="37.6846" transform="matrix(-1 0 0 1 76.291 0.443359)" stroke="url(#paint0_linear_1108_959)" stroke-width="0.630745"/>
</g>
<path id="Vector 17" d="M21.1139 35.8343L46.664 25.4676C47.2537 25.2283 47.8135 25.869 47.4972 26.4213L41.2467 37.3349C41.136 37.5282 41.1286 37.7638 41.2269 37.9637L47.4971 50.7031C47.7886 51.2954 47.1381 51.9078 46.5645 51.581L21.0342 37.0371C20.548 36.7601 20.5955 36.0446 21.1139 35.8343Z" fill="#DBDEE9"/>
</g>
<defs>
<filter id="filter0_bi_1108_959" x="-61.067" y="-60.9147" width="198.716" height="198.716" filterUnits="userSpaceOnUse" color-interpolation-filters="sRGB">
<feFlood flood-opacity="0" result="BackgroundImageFix"/>
<feGaussianBlur in="BackgroundImageFix" stdDeviation="30.679"/>
<feComposite in2="SourceAlpha" operator="in" result="effect1_backgroundBlur_1108_959"/>
<feBlend mode="normal" in="SourceGraphic" in2="effect1_backgroundBlur_1108_959" result="shape"/>
<feColorMatrix in="SourceAlpha" type="matrix" values="0 0 0 0 0 0 0 0 0 0 0 0 0 0 0 0 0 0 127 0" result="hardAlpha"/>
<feOffset dy="13.8764"/>
<feGaussianBlur stdDeviation="8.19968"/>
<feComposite in2="hardAlpha" operator="arithmetic" k2="-1" k3="1"/>
<feColorMatrix type="matrix" values="0 0 0 0 0.9625 0 0 0 0 1 0 0 0 0 0.984043 0 0 0 0.06 0"/>
<feBlend mode="normal" in2="shape" result="effect2_innerShadow_1108_959"/>
</filter>
<linearGradient id="paint0_linear_1108_959" x1="38" y1="8.09861e-07" x2="65.1744" y2="69.814" gradientUnits="userSpaceOnUse">
<stop offset="0.619589" stop-color="#B8AEAE"/>
<stop offset="1" stop-opacity="0"/>
</linearGradient>
</defs>
</svg>
